# xmcd CD database file
#
# Track frame offsets:
#	150
#	10252
#	21125
#	33905
#	43242
#	53355
#	65787
#	77805
#	90260
#	100067
#	112012
#	123420
#	133375
#	141740
#	151992
#	163882
#	173107
#	182650
#	192672
#	204482
#	213987
#	224027
#	234382
#	247877
#	256867
#	265765
#	273802
#	284665
#	297457
#	314922
#	329747
#
# Disc length: 4539 seconds
#
# Revision: 2
# Processed by: cddbd v1.4PL0 Copyright (c) Steve Scherf et al.
# Submitted via: CDex 1.50Beta6
#
DISCID=e511b91f
DTITLE=Johnny Cash - 1955-1983 Disc 1
DYEAR=1900
DGENRE=Country
TTITLE0=Hey Potter
TTITLE1=Cry, Cry, Cry
TTITLE2=Folsom Prison Blues
TTITLE3=Luther Played The Boogie
TTITLE4=Get Rhythm
TTITLE5=I Walk The Line
TTITLE6=Home Of The Blues
TTITLE7=Give My Love To Rose
TTITLE8=Rock Island Line
TTITLE9=Doin' My Time
TTITLE10=Big River
TTITLE11=Ballad Of A Teenage Queen
TTITLE12=Guess Things Happen That Way
TTITLE13=The Ways Of A Woman In Love
TTITLE14=Thanks A Lot
TTITLE15=Oh, What A Dream
TTITLE16=What Do I Care
TTITLE17=All Over Again
TTITLE18=I Still Miss Someone
TTITLE19=I'd Just Be Fool Enough (To Fall)
TTITLE20=Walking The Blues
TTITLE21=Frankie's Man, Johnny
TTITLE22=Tennessee Flat-Top Box
TTITLE23=Sing It Pretty, Sue
TTITLE24=Pickin' Time
TTITLE25=Five Feet High And Rising
TTITLE26=The Old Account
TTITLE27=(There'll Be) Peace In The Valley (For Me)
TTITLE28=Were You There (When They Crucified My Lord)
TTITLE29=There Ain't No Good Chain Gang
TTITLE30=In The Jailhouse Now
EXTD=
EXTT0=
EXTT1=
EXTT2=
EXTT3=
EXTT4=
EXTT5=
EXTT6=
EXTT7=
EXTT8=
EXTT9=
EXTT10=
EXTT11=
EXTT12=
EXTT13=
EXTT14=
EXTT15=
EXTT16=
EXTT17=
EXTT18=
EXTT19=
EXTT20=
EXTT21=
EXTT22=
EXTT23=
EXTT24=
EXTT25=
EXTT26=
EXTT27=
EXTT28=
EXTT29=
EXTT30=
PLAYORDER=
